<svg xmlns="http://www.w3.org/2000/svg" viewBox="0 0 281.7 70"><defs><style>.cls-1{fill:#00a0b0;}.cls-2{fill:#1d336f;}.cls-3{fill:#c70017;}.cls-4{fill:#fff;}</style></defs><g id="Layer_2" data-name="Layer 2"><g id="Layer_1-2" data-name="Layer 1"><path class="cls-1" d="M281.67,9.71c-.06,15.2.09,39.17,0,51.82A8.54,8.54,0,0,1,273.14,70H98.66c15-23.67,54.14,17.09,56.6-60.55a8.55,8.55,0,0,1,8.52-8.29H273.14A8.52,8.52,0,0,1,281.67,9.71Z"/><path class="cls-2" d="M60.63,8.51v2.43c0,5.5,0,11,0,16.48A21,21,0,0,0,61,31a6.31,6.31,0,0,0,5.37,5.49,21.25,21.25,0,0,0,8.37,0c3.39-.67,5.18-2.51,5.72-5.92a31.31,31.31,0,0,0,.35-4.64c0-7.81,0-15.63,0-23.44V1.36H95.67V7.79c.22-.11.31-.13.36-.19,3-3.87,7.29-5.5,11.88-6.46A51.53,51.53,0,0,1,123.48.23c4.69.45,9.21,1.5,13.12,4.34a12,12,0,0,1,5,7.91,4.62,4.62,0,0,1,.06.64c0,.15,0,.3,0,.5H126.88c-.1-.44-.18-.91-.31-1.37-.78-2.93-2.88-4.36-5.69-4.87a17.41,17.41,0,0,0-8.33.45,4.79,4.79,0,0,0-3.08,2.55c-.87,1.84-.44,3.58,1.4,4.41a24.74,24.74,0,0,0,5.47,1.68c5,1,10,1.62,15,2.65a25.91,25.91,0,0,1,6.4,2.35c4.38,2.24,6,5.91,5.44,10.78-.82,6.56-4.58,10.75-10.51,13.14A32.35,32.35,0,0,1,113,47c-8-1.81-16-3.72-24.06-5.48a78.42,78.42,0,0,0-19-2.14,62.63,62.63,0,0,0-17.44,2.9,2.17,2.17,0,0,1-1.44-.12,6.74,6.74,0,0,1-4.09-4.5,3.56,3.56,0,0,1,.25-2.56q6.4-12.9,12.77-25.83c.12-.25.27-.5.4-.75ZM107.7,31c0,.26.09.44.11.62.24,3.27,2.18,5,5.2,5.79a24.18,24.18,0,0,0,8.64.43A16.32,16.32,0,0,0,126,36.7a3.84,3.84,0,0,0,2.35-4.56,3.93,3.93,0,0,0-3-2.82c-2.39-.68-4.83-1.23-7.28-1.67-3.9-.69-7.85-1.12-11.73-1.92S98.55,23.46,96,20c0,0-.11,0-.21,0V31Z"/><path class="cls-2" d="M24.55,52.73,0,1.31H1c4.58,0,9.16,0,13.74,0A1.09,1.09,0,0,1,16,2.08q6.27,14.76,12.6,29.5c.09.21.21.42.41.83,4.53-10.47,9-20.78,13.43-31.08h16c-.32.71-.61,1.37-.93,2Q47.11,24.7,36.76,46a2.5,2.5,0,0,1-1.33,1.25C32,49,28.55,50.69,25.12,52.41Z"/><path class="cls-3" d="M137.11,47c-1.13,1.12-2.19,2.32-3.4,3.34a21,21,0,0,1-13.43,5A79.91,79.91,0,0,1,105,53.77c-6.39-1.11-12.75-2.42-19.18-3.31-8.8-1.24-17.58-1.15-26.19,1.46a53.44,53.44,0,0,0-22.4,13.87C36.05,67,35,68.25,33.78,69.45a1.58,1.58,0,0,1-1,.53c-5.53,0-11.06,0-16.58,0a3.78,3.78,0,0,1-.44-.09c.17-.23.27-.4.4-.54A91.67,91.67,0,0,1,37.78,52.71a68.36,68.36,0,0,1,24.59-7.86,85.45,85.45,0,0,1,21.26.34c8,1.05,15.74,3,23.56,4.75a82.33,82.33,0,0,0,13.62,2.14c5.9.32,11-1.63,15.69-5,.13-.1.27-.19.41-.28Z"/><path class="cls-3" d="M44.79,69.88c1.53-1.5,2.83-3,4.33-4.25A48.49,48.49,0,0,1,70.88,55.54a80.49,80.49,0,0,1,26.86-.78c4.89.63,9.77,1.42,14.68,2.23a8.94,8.94,0,0,1-.89.09c-2.93-.06-5.86-.06-8.79-.2a95.88,95.88,0,0,0-19.08.8C77.74,58.6,72,60.15,67,63.49a18.78,18.78,0,0,0-5.88,5.92,1.28,1.28,0,0,1-.9.56c-4.89,0-9.77,0-14.66,0A4.89,4.89,0,0,1,44.79,69.88Z"/><path class="cls-3" d="M107.2,59.15c-2.06.43-4.09.79-6.09,1.28a35.35,35.35,0,0,0-10.52,4.09,10.13,10.13,0,0,0-4.52,5,.9.9,0,0,1-.66.47c-4.67,0-9.34,0-14,0-.05,0-.1,0-.28-.13.32-.35.6-.68.91-1a31.08,31.08,0,0,1,12.5-6.8,76.74,76.74,0,0,1,22.49-3S107.11,59.1,107.2,59.15Z"/><path class="cls-4" d="M186.89,25.25a15.67,15.67,0,0,1-.15,2.26,9.35,9.35,0,0,1-.55,2,6.73,6.73,0,0,1-2.1,2.93,7.86,7.86,0,0,1-2.33,1.25,12.27,12.27,0,0,1-3.32.38H170V15.79h8.3q4.33,0,6.44,2.32T186.89,25.25Zm-4.64-.32c0-2.06-.27-3.48-.82-4.26a3.69,3.69,0,0,0-3.16-1.17h-3.94V30.37h3.94a3.69,3.69,0,0,0,3.13-1.15C182,28.45,182.25,27,182.25,24.93Z"/><path class="cls-4" d="M204.5,26.78a16.21,16.21,0,0,1-.07,1.65c-.05.47-.12.94-.2,1.39a3.86,3.86,0,0,1-.86,1.91,6.3,6.3,0,0,1-2.73,1.91,11.44,11.44,0,0,1-4.06.62,11.75,11.75,0,0,1-4-.6,6.79,6.79,0,0,1-2.81-1.93,4.74,4.74,0,0,1-.77-1.86,14.47,14.47,0,0,1-.26-3.09v-11H193V26.68a5.06,5.06,0,0,0,.79,3.23,3.71,3.71,0,0,0,2.83.9,3.75,3.75,0,0,0,2.84-.9,5,5,0,0,0,.79-3.23V15.79h4.29Z"/><path class="cls-4" d="M229.52,34.09h-4.29V26.71h-6.12v7.38h-4.29V15.79h4.29V23h6.12V15.79h4.29Z"/><path class="cls-4" d="M249.24,24.93c0,3.19-.74,5.58-2.24,7.15s-3.75,2.38-6.8,2.38-5.39-.79-6.84-2.37-2.18-4-2.18-7.33q0-4.7,2.23-7t6.79-2.28c3.07,0,5.34.78,6.83,2.33S249.24,21.75,249.24,24.93Zm-4.62,0a7.42,7.42,0,0,0-1.07-4.45,4.7,4.7,0,0,0-6.65,0,4.94,4.94,0,0,0-.83,1.79,10.22,10.22,0,0,0-.28,2.53,7.61,7.61,0,0,0,1.08,4.56,3.86,3.86,0,0,0,3.33,1.43,4,4,0,0,0,3.32-1.43A7.08,7.08,0,0,0,244.62,24.93Zm-1.83,13h-4.54v-2h4.54Z"/><path class="cls-4" d="M265.7,34.08h-6.55a11.92,11.92,0,0,1-3.29-.36,6.43,6.43,0,0,1-2.36-1.27,7.09,7.09,0,0,1-2.08-3,11.57,11.57,0,0,1-.7-4.25q0-4.82,2.08-7.14t6.44-2.32h6.46v3.66h-6.38a4.79,4.79,0,0,0-1.83.3,3.16,3.16,0,0,0-1.2,1q-.93,1.35-.93,4.65a6.3,6.3,0,0,0,.88,3.88,3.73,3.73,0,0,0,3.08,1.08h6.38Z"/><path class="cls-4" d="M190.62,41.79,185,55.45h-3.17L176,41.79h3.62l3.74,9.4,3.86-9.4Z"/><path class="cls-4" d="M194.88,55.45h-3.34V41.79h3.34Z"/><path class="cls-4" d="M221,44.57h-4.25V55.43h-3.29V44.57h-4.21V41.79H221Z"/><path class="cls-4" d="M242.3,55.45h-3.15l.19-9-2.92,9h-3.24l-3-9.09.22,9.09h-3.23V41.79h4.41l3.18,9.59,3.14-9.59h4.42Z"/><path class="cls-4" d="M256.4,41.79l-5.22,7.64v6H248v-6l-5.2-7.66h3.68l3.09,4.83,3.11-4.83Z"/><rect class="cls-4" x="200.91" y="56.97" width="2.78" height="1.41"/><path class="cls-4" d="M252.75,38.4a5,5,0,0,1-.29,1.05,2,2,0,0,1-.48.68,1.81,1.81,0,0,1-1.38.56l-.3,0-.32,0-1.2-.26-.15,0h-.15a.72.72,0,0,0-.4.1c-.07,0-.14.19-.22.46h-1.37a3.83,3.83,0,0,1,.77-1.73,1.73,1.73,0,0,1,1.34-.52l.34,0,.3,0,1.15.26.21,0h.23a.6.6,0,0,0,.32-.12.38.38,0,0,0,.15-.18,1.28,1.28,0,0,0,.1-.3Z"/><polygon class="cls-4" points="205.56 40.47 203.5 40.47 202.3 39.63 201.11 40.47 199.04 40.47 201.12 38.52 203.5 38.52 205.56 40.47"/><path class="cls-4" d="M207.62,44.46V41.79H197V55.45h10.63V52.78h-6.39a1.42,1.42,0,0,1-1.41-1.42h0A1.41,1.41,0,0,1,201.23,50h6.39V47.28h-6.39a1.41,1.41,0,0,1-1.41-1.41h0a1.41,1.41,0,0,1,1.41-1.41Z"/></g></g></svg>