<svg xmlns="http://www.w3.org/2000/svg" xmlns:xlink="http://www.w3.org/1999/xlink" viewBox="0 0 90 90"><defs><style>.cls-1{fill:url(#linear-gradient);}.cls-2{fill:#fff;}</style><linearGradient id="linear-gradient" x1="45.5" y1="-0.24" x2="44.5" y2="90.24" gradientUnits="userSpaceOnUse"><stop offset="0" stop-color="#eb1c24"/><stop offset="1" stop-color="#790000"/></linearGradient></defs><g id="Layer_2" data-name="Layer 2"><g id="Layer_1-2" data-name="Layer 1"><rect class="cls-1" width="90" height="90" rx="22.78"/><path class="cls-2" d="M33.07,73.84c-3.62,0-7.25.12-10.86,0a8,8,0,0,1-7.56-8c0-13.81,0-27.63,0-41.46a8.07,8.07,0,0,1,8-8.15c4.45-.12,8.92,0,13.38,0,.08,0,.19,0,.23.09s-.27.26-.41.36a28.28,28.28,0,0,0-7,5.65,25.54,25.54,0,0,0-6.41,13.1C21,44.22,23.74,51.74,30,58c1.11,1.13,1.26,2,.37,3.51a13,13,0,0,1-4.44,4.17l-.56.36c-.27.24-.1.36.14.47a1.94,1.94,0,0,0,.2.33c1.52,1.35,3,2.79,4.46,4.17.7.65,1.4,1.32,2.08,2C32.54,73.28,33,73.36,33.07,73.84Z"/><path class="cls-2" d="M33.89,73.84c-.07-.47-.53-.55-.81-.82-.68-.69-1.38-1.35-2.08-2-1.5-1.38-2.94-2.83-4.47-4.18a1.81,1.81,0,0,1-.2-.33,20.29,20.29,0,0,0,9.93-.78c1.1-.33,2.2-.66,3.31-.94a3.78,3.78,0,0,1,2.28.11,33.1,33.1,0,0,0,24.85-1,29.41,29.41,0,0,0,8.93-6.12c.13-.13.22-.33.46-.34.12.18,0,.38,0,.58v7.75a8,8,0,0,1-7.94,8.07h-.07c-4.77,0-9.54,0-14.31,0H34.68a7,7,0,0,0-.79,0Z"/><path class="cls-2" d="M35.13,44.19h5.75c1,0,1.62.45,1.73,1.28A1.49,1.49,0,0,1,41,47.24c-2.15,0-4.28,0-6.43,0-.62,0-1.23,0-1.85,0a2,2,0,0,1-1.9-1,2,2,0,0,1,.4-2.16c2-2.59,4.09-5.2,6.15-7.8l.35-.46c-.13-.23-.31-.12-.47-.14H32.92a5.34,5.34,0,0,1-1-.1,1.39,1.39,0,0,1-1-1.67,1.37,1.37,0,0,1,1-1,3.93,3.93,0,0,1,1-.12c2.35,0,4.73,0,7.08,0a4.37,4.37,0,0,1,1.25.15,1.45,1.45,0,0,1,.93,2A9.54,9.54,0,0,1,40.83,37q-2.59,3.32-5.21,6.59l-.49.64Z"/><path class="cls-2" d="M50.5,37.22a2.06,2.06,0,0,1,1.19-.9,1.62,1.62,0,0,1,2,1.52c0,2.65,0,5.3,0,7.95a1.57,1.57,0,0,1-1.1,1.5,1.61,1.61,0,0,1-1.85-.52c-.23-.28-.32-.33-.64-.08a4,4,0,0,1-4,.68c-2.35-.77-3.32-2.61-3.59-4.85a5.5,5.5,0,0,1,2.71-5.76,4.18,4.18,0,0,1,5.28.46Zm-4.69,4.84a2.87,2.87,0,0,0,.56,1.6,2.2,2.2,0,0,0,3.05.44,2.57,2.57,0,0,0,.43-.44,3.31,3.31,0,0,0,0-3.67,2,2,0,0,0-1.57-.83C46.82,39.06,45.8,40.19,45.81,42.06Zm13.87.08c-.1-3.41,2.14-6,5.31-6a5.48,5.48,0,0,1,6,5.47,5.51,5.51,0,0,1-5.11,6,5.41,5.41,0,0,1-6.15-5.47ZM63,41.82a2.88,2.88,0,0,0,.57,1.85,2.15,2.15,0,0,0,3,.4A2.75,2.75,0,0,0,67,43.7,3.29,3.29,0,0,0,67,40a2,2,0,0,0-1.58-.83C64,39.08,63,40.16,63,41.82ZM58.52,39.5c0,2,0,4.11,0,6.16a1.73,1.73,0,0,1-1.67,1.75,2,2,0,0,1-.49,0,1.72,1.72,0,0,1-1.17-1.71V35.12c0-.63,0-1.24,0-1.86a1.57,1.57,0,0,1,1.64-1.68,1.59,1.59,0,0,1,1.69,1.71C58.53,35.35,58.52,37.43,58.52,39.5Z"/></g></g></svg>