<svg xmlns="http://www.w3.org/2000/svg" xmlns:xlink="http://www.w3.org/1999/xlink" viewBox="0 0 90 90"><defs><style>.cls-1{fill:url(#linear-gradient);}.cls-2{fill:#fff;}</style><linearGradient id="linear-gradient" x1="45.5" y1="-0.24" x2="44.5" y2="90.24" gradientUnits="userSpaceOnUse"><stop offset="0" stop-color="#eb1c24"/><stop offset="1" stop-color="#790000"/></linearGradient></defs><g id="Layer_2" data-name="Layer 2"><g id="Layer_1-2" data-name="Layer 1"><rect class="cls-1" width="90" height="90" rx="22.78"/><path class="cls-2" d="M68.8,39.57A10.68,10.68,0,0,0,58.12,28.9H30.83A10.67,10.67,0,0,0,20.16,39.57v12.7A10.67,10.67,0,0,0,30.83,63H58.12A10.68,10.68,0,0,0,68.8,52.27Zm-16,7.3L40.51,52.93c-.48.26-2.11-.09-2.11-.64V39.86c0-.55,1.64-.89,2.12-.62l11.72,6.37C52.73,45.89,53.24,46.6,52.75,46.87Z"/></g></g></svg>