<svg xmlns="http://www.w3.org/2000/svg" xmlns:xlink="http://www.w3.org/1999/xlink" viewBox="0 0 90 90"><defs><style>.cls-1{fill:url(#linear-gradient);}.cls-2{fill:#fff;fill-rule:evenodd;}</style><linearGradient id="linear-gradient" x1="45.5" y1="-0.24" x2="44.5" y2="90.24" gradientUnits="userSpaceOnUse"><stop offset="0" stop-color="#eb1c24"/><stop offset="1" stop-color="#790000"/></linearGradient></defs><g id="Layer_2" data-name="Layer 2"><g id="Layer_1-2" data-name="Layer 1"><rect class="cls-1" width="90" height="90" rx="22.78"/><path class="cls-2" d="M54,35.73a21.88,21.88,0,0,0,12.79,4.09V32.6A12.72,12.72,0,0,1,60,28.71a12.84,12.84,0,0,1-5.86-8.66H47.45V56.67a7.76,7.76,0,0,1-13.93,4.67A7.75,7.75,0,0,1,37,46.66a7.61,7.61,0,0,1,2.35.37v-7.3A16.94,16.94,0,0,0,27.6,68.52,17,17,0,0,0,54,54.44Z"/><path class="cls-2" d="M66.78,32.6v-2A12.73,12.73,0,0,1,60,28.71,12.69,12.69,0,0,0,66.78,32.6ZM54.13,20.05c-.06-.35-.11-.7-.14-1.05V17.82H44.76V54.44a7.75,7.75,0,0,1-11.24,6.9,7.76,7.76,0,0,0,13.93-4.67V20.05ZM39.36,39.73V37.65A18.07,18.07,0,0,0,37,37.5a16.94,16.94,0,0,0-9.44,31A16.94,16.94,0,0,1,39.36,39.73Z"/></g></g></svg>