<svg xmlns="http://www.w3.org/2000/svg" xmlns:xlink="http://www.w3.org/1999/xlink" viewBox="0 0 90 90"><defs><style>.cls-1{fill:url(#linear-gradient);}.cls-2{fill:#fff;}</style><linearGradient id="linear-gradient" x1="45.5" y1="-0.24" x2="44.5" y2="90.24" gradientUnits="userSpaceOnUse"><stop offset="0" stop-color="#eb1c24"/><stop offset="1" stop-color="#790000"/></linearGradient></defs><g id="Layer_2" data-name="Layer 2"><g id="Layer_1-2" data-name="Layer 1"><rect class="cls-1" width="90" height="90" rx="22.78"/><path class="cls-2" d="M58.8,28.34a3.06,3.06,0,1,0,3.05,3.05A3.06,3.06,0,0,0,58.8,28.34Z"/><path class="cls-2" d="M45.21,32.26A12.84,12.84,0,1,0,58.05,45.09,12.84,12.84,0,0,0,45.21,32.26Zm0,21.05a8.22,8.22,0,1,1,8.23-8.22A8.23,8.23,0,0,1,45.21,53.31Z"/><path class="cls-2" d="M55.4,71.15H34.6A15.67,15.67,0,0,1,18.94,55.5V34.69A15.67,15.67,0,0,1,34.6,19H55.4A15.67,15.67,0,0,1,71.06,34.69V55.5A15.67,15.67,0,0,1,55.4,71.15ZM34.6,23.93A10.78,10.78,0,0,0,23.84,34.69V55.5A10.77,10.77,0,0,0,34.6,66.25H55.4A10.77,10.77,0,0,0,66.16,55.5V34.69A10.78,10.78,0,0,0,55.4,23.93Z"/></g></g></svg>